<svg width="176" height="177" viewBox="0 0 176 177" fill="none" xmlns="http://www.w3.org/2000/svg">
<rect x="8" y="9" width="168" height="168" rx="11" fill="#001A37"/>
<rect x="6" y="7" width="168" height="168" rx="11" fill="#001A37"/>
<rect x="2" y="2" width="168" height="168" rx="11" fill="#001A37"/>
<rect width="168" height="168" rx="11" fill="#002856"/>
<path d="M40.6938 156V117.779H47.3631L61.6766 137.223H58.4958L72.5015 117.779H79.1708V156H72.1423V125.731L74.8614 126.398L60.3427 145.739H59.5219L45.3623 126.398L47.671 125.731V156H40.6938ZM86.4854 156V117.779H93.4626V134.453H109.726V117.779H116.754V156H109.726V140.609H93.4626V156H86.4854ZM120.981 156L134.166 117.779H143.195L156.38 156H148.787L146.068 147.792H131.293L128.523 156H120.981ZM133.294 141.635H144.068L137.706 122.602H139.655L133.294 141.635Z" fill="#FAFAFA"/>
</svg>
